<svg xmlns="http://www.w3.org/2000/svg" viewBox="0 0 100 100" id="cart"><g id="cart"><path d="M47.55,73.94a8,8,0,1,0,8,8A8,8,0,0,0,47.55,73.94Zm0,12a4,4,0,1,1,4-4A4,4,0,0,1,47.55,85.91Z"></path><path d="M76.82,73.94a8,8,0,1,0,8,8A8,8,0,0,0,76.82,73.94Zm0,12a4,4,0,1,1,4-4A4,4,0,0,1,76.82,85.91Z"></path><path d="M88.75,61.75l8.09-36.12a6.46,6.46,0,0,0-6.3-7.87H27.47l-1.24-6.07a2,2,0,0,0-2-1.6H5a2,2,0,0,0,0,4H22.64l1.24,6.07h0l8.5,41.55h0L34.29,71a2,2,0,0,0,2,1.6H92.12a2,2,0,0,0,0-4H37.88l-1.09-5.31h50A2,2,0,0,0,88.75,61.75ZM36,59.31,28.29,21.76H90.54a2.45,2.45,0,0,1,2.4,3L85.19,59.31Z"></path></g></svg>